<mxfile host="app.diagrams.net" agent="Mozilla/5.0 (Windows NT 10.0; Win64; x64) AppleWebKit/537.36 (KHTML, like Gecko) Chrome/128.0.0.0 Safari/537.36" version="24.7.14">
  <diagram name="Page-1" id="Ns0Mp6QIsq2wX_XLSJJS">
    <mxGraphModel dx="1434" dy="780" grid="1" gridSize="10" guides="1" tooltips="1" connect="1" arrows="1" fold="1" page="1" pageScale="1" pageWidth="827" pageHeight="1169" math="0" shadow="0">
      <root>
        <mxCell id="0" />
        <mxCell id="1" parent="0" />
        <mxCell id="Vn3vF7tKrYISdn3gx6W3-1" value="Utilisateur" style="shape=umlActor;verticalLabelPosition=bottom;verticalAlign=top;html=1;outlineConnect=0;" parent="1" vertex="1">
          <mxGeometry x="70" y="100" width="30" height="60" as="geometry" />
        </mxCell>
        <mxCell id="Vn3vF7tKrYISdn3gx6W3-2" value="Jury" style="shape=umlActor;verticalLabelPosition=bottom;verticalAlign=top;html=1;outlineConnect=0;" parent="1" vertex="1">
          <mxGeometry x="70" y="250" width="30" height="60" as="geometry" />
        </mxCell>
        <mxCell id="lvViub10ch04Mr3h4J6H-2" style="edgeStyle=orthogonalEdgeStyle;rounded=0;orthogonalLoop=1;jettySize=auto;html=1;" edge="1" parent="1">
          <mxGeometry relative="1" as="geometry">
            <mxPoint x="85" y="340" as="targetPoint" />
            <mxPoint x="85" y="390" as="sourcePoint" />
          </mxGeometry>
        </mxCell>
        <mxCell id="Vn3vF7tKrYISdn3gx6W3-3" value="Président" style="shape=umlActor;verticalLabelPosition=bottom;verticalAlign=top;html=1;outlineConnect=0;" parent="1" vertex="1">
          <mxGeometry x="70" y="410" width="30" height="60" as="geometry" />
        </mxCell>
        <mxCell id="Vn3vF7tKrYISdn3gx6W3-5" value="" style="shape=note2;boundedLbl=1;whiteSpace=wrap;html=1;size=25;verticalAlign=top;align=center;fillColor=#ffcd28;strokeColor=#d79b00;gradientColor=#ffa500;" parent="1" vertex="1">
          <mxGeometry x="20" y="20" width="165" height="50" as="geometry" />
        </mxCell>
        <mxCell id="Vn3vF7tKrYISdn3gx6W3-6" value="&#xa;Prix Goncourt&#xa;&#xa;Cas d&#39;utilisation" style="resizeWidth=1;part=1;strokeColor=none;fillColor=none;align=left;spacingLeft=5;fontSize=13;" parent="Vn3vF7tKrYISdn3gx6W3-5" vertex="1">
          <mxGeometry width="165" height="35" relative="1" as="geometry" />
        </mxCell>
        <mxCell id="Vn3vF7tKrYISdn3gx6W3-8" value="VIEW&lt;br&gt;Sélection 2024" style="ellipse;whiteSpace=wrap;html=1;fillColor=#dae8fc;strokeColor=#6c8ebf;" parent="1" vertex="1">
          <mxGeometry x="250" y="100" width="120" height="60" as="geometry" />
        </mxCell>
        <mxCell id="Vn3vF7tKrYISdn3gx6W3-9" value="Sélection&amp;nbsp;&lt;br style=&quot;font-size: 10px;&quot;&gt;Auteur, livre..." style="html=1;dropTarget=0;whiteSpace=wrap;fontSize=10;" parent="1" vertex="1">
          <mxGeometry x="390" y="105" width="120" height="50" as="geometry" />
        </mxCell>
        <mxCell id="Vn3vF7tKrYISdn3gx6W3-10" value="" style="shape=module;jettyWidth=8;jettyHeight=4;" parent="Vn3vF7tKrYISdn3gx6W3-9" vertex="1">
          <mxGeometry x="1" width="20" height="20" relative="1" as="geometry">
            <mxPoint x="-27" y="7" as="offset" />
          </mxGeometry>
        </mxCell>
        <mxCell id="Vn3vF7tKrYISdn3gx6W3-11" value="Authentification" style="ellipse;whiteSpace=wrap;html=1;fillColor=#f8cecc;strokeColor=#b85450;" parent="1" vertex="1">
          <mxGeometry x="220" y="255" width="115" height="50" as="geometry" />
        </mxCell>
        <mxCell id="Vn3vF7tKrYISdn3gx6W3-12" value="Voter" style="ellipse;whiteSpace=wrap;html=1;fillColor=#d5e8d4;strokeColor=#82b366;" parent="1" vertex="1">
          <mxGeometry x="414" y="255" width="110" height="50" as="geometry" />
        </mxCell>
        <mxCell id="Vn3vF7tKrYISdn3gx6W3-13" value="MANAGE&lt;br&gt;Sélection" style="ellipse;whiteSpace=wrap;html=1;fillColor=#fff2cc;strokeColor=#d6b656;" parent="1" vertex="1">
          <mxGeometry x="450" y="345" width="140" height="70" as="geometry" />
        </mxCell>
        <mxCell id="Vn3vF7tKrYISdn3gx6W3-14" value="MANAGE&lt;br&gt;Votes" style="ellipse;whiteSpace=wrap;html=1;fillColor=#fff2cc;strokeColor=#d6b656;" parent="1" vertex="1">
          <mxGeometry x="450" y="460" width="140" height="70" as="geometry" />
        </mxCell>
        <mxCell id="Vn3vF7tKrYISdn3gx6W3-21" value="" style="endArrow=open;endFill=1;endSize=12;html=1;rounded=0;" parent="1" source="Vn3vF7tKrYISdn3gx6W3-2" target="Vn3vF7tKrYISdn3gx6W3-11" edge="1">
          <mxGeometry width="160" relative="1" as="geometry">
            <mxPoint x="110" y="465" as="sourcePoint" />
            <mxPoint x="200" y="464.5" as="targetPoint" />
            <Array as="points" />
          </mxGeometry>
        </mxCell>
        <mxCell id="Vn3vF7tKrYISdn3gx6W3-22" value="" style="endArrow=open;endFill=1;endSize=12;html=1;rounded=0;" parent="1" source="Vn3vF7tKrYISdn3gx6W3-3" target="Vn3vF7tKrYISdn3gx6W3-24" edge="1">
          <mxGeometry width="160" relative="1" as="geometry">
            <mxPoint x="330" y="510" as="sourcePoint" />
            <mxPoint x="490" y="510" as="targetPoint" />
          </mxGeometry>
        </mxCell>
        <mxCell id="Vn3vF7tKrYISdn3gx6W3-23" value="" style="endArrow=open;endFill=1;endSize=12;html=1;rounded=0;" parent="1" source="Vn3vF7tKrYISdn3gx6W3-11" target="Vn3vF7tKrYISdn3gx6W3-12" edge="1">
          <mxGeometry width="160" relative="1" as="geometry">
            <mxPoint x="330" y="510" as="sourcePoint" />
            <mxPoint x="490" y="510" as="targetPoint" />
          </mxGeometry>
        </mxCell>
        <mxCell id="Vn3vF7tKrYISdn3gx6W3-24" value="Authentification" style="ellipse;whiteSpace=wrap;html=1;fillColor=#f8cecc;strokeColor=#b85450;" parent="1" vertex="1">
          <mxGeometry x="210" y="415" width="115" height="50" as="geometry" />
        </mxCell>
        <mxCell id="Vn3vF7tKrYISdn3gx6W3-25" value="" style="endArrow=open;endFill=1;endSize=12;html=1;rounded=0;" parent="1" source="Vn3vF7tKrYISdn3gx6W3-24" target="Vn3vF7tKrYISdn3gx6W3-12" edge="1">
          <mxGeometry width="160" relative="1" as="geometry">
            <mxPoint x="330" y="510" as="sourcePoint" />
            <mxPoint x="490" y="510" as="targetPoint" />
          </mxGeometry>
        </mxCell>
        <mxCell id="Vn3vF7tKrYISdn3gx6W3-26" value="" style="endArrow=open;endFill=1;endSize=12;html=1;rounded=0;" parent="1" source="Vn3vF7tKrYISdn3gx6W3-24" target="Vn3vF7tKrYISdn3gx6W3-13" edge="1">
          <mxGeometry width="160" relative="1" as="geometry">
            <mxPoint x="330" y="510" as="sourcePoint" />
            <mxPoint x="490" y="510" as="targetPoint" />
          </mxGeometry>
        </mxCell>
        <mxCell id="Vn3vF7tKrYISdn3gx6W3-27" value="" style="endArrow=open;endFill=1;endSize=12;html=1;rounded=0;" parent="1" source="Vn3vF7tKrYISdn3gx6W3-24" target="Vn3vF7tKrYISdn3gx6W3-14" edge="1">
          <mxGeometry width="160" relative="1" as="geometry">
            <mxPoint x="330" y="510" as="sourcePoint" />
            <mxPoint x="490" y="510" as="targetPoint" />
          </mxGeometry>
        </mxCell>
        <mxCell id="Vn3vF7tKrYISdn3gx6W3-28" value="" style="endArrow=open;endFill=1;endSize=12;html=1;rounded=0;" parent="1" source="Vn3vF7tKrYISdn3gx6W3-1" target="Vn3vF7tKrYISdn3gx6W3-8" edge="1">
          <mxGeometry width="160" relative="1" as="geometry">
            <mxPoint x="330" y="410" as="sourcePoint" />
            <mxPoint x="490" y="410" as="targetPoint" />
          </mxGeometry>
        </mxCell>
        <mxCell id="lvViub10ch04Mr3h4J6H-3" style="edgeStyle=orthogonalEdgeStyle;rounded=0;orthogonalLoop=1;jettySize=auto;html=1;" edge="1" parent="1">
          <mxGeometry relative="1" as="geometry">
            <mxPoint x="84.5" y="190" as="targetPoint" />
            <mxPoint x="84.5" y="240" as="sourcePoint" />
          </mxGeometry>
        </mxCell>
      </root>
    </mxGraphModel>
  </diagram>
</mxfile>
